<mxfile host="app.diagrams.net" modified="2022-07-04T06:23:04.480Z" agent="5.0 (Macintosh; Intel Mac OS X 10_15_7) AppleWebKit/537.36 (KHTML, like Gecko) Chrome/103.0.0.0 Safari/537.36" etag="cYWjt9g2kAWsPgf9vSpw" version="20.0.4" type="github">
  <diagram id="-dlRaBKnl42LZvgVq3CJ" name="Page-1">
    <mxGraphModel dx="1298" dy="738" grid="1" gridSize="10" guides="1" tooltips="1" connect="1" arrows="1" fold="1" page="1" pageScale="1" pageWidth="850" pageHeight="1100" math="0" shadow="0">
      <root>
        <mxCell id="0" />
        <mxCell id="1" parent="0" />
        <mxCell id="JyznrhnqhkmJ7ZB6tYjq-1" value="&lt;font style=&quot;font-size: 16px;&quot;&gt;BPF 编程&lt;/font&gt;" style="rounded=1;whiteSpace=wrap;html=1;fillColor=#dae8fc;strokeColor=#6c8ebf;" vertex="1" parent="1">
          <mxGeometry x="40" y="260" width="120" height="60" as="geometry" />
        </mxCell>
        <mxCell id="JyznrhnqhkmJ7ZB6tYjq-2" value="" style="shape=curlyBracket;whiteSpace=wrap;html=1;rounded=1;fontSize=16;" vertex="1" parent="1">
          <mxGeometry x="170" y="140" width="40" height="300" as="geometry" />
        </mxCell>
        <mxCell id="JyznrhnqhkmJ7ZB6tYjq-3" value="&lt;font style=&quot;font-size: 16px;&quot;&gt;BPF 指令集编程&lt;/font&gt;" style="rounded=1;whiteSpace=wrap;html=1;fillColor=#d5e8d4;strokeColor=#82b366;" vertex="1" parent="1">
          <mxGeometry x="220" y="140" width="160" height="60" as="geometry" />
        </mxCell>
        <mxCell id="JyznrhnqhkmJ7ZB6tYjq-4" value="&lt;font style=&quot;font-size: 16px;&quot;&gt;BPF C 语言编程&lt;/font&gt;" style="rounded=1;whiteSpace=wrap;html=1;fillColor=#d5e8d4;strokeColor=#82b366;" vertex="1" parent="1">
          <mxGeometry x="220" y="260" width="160" height="60" as="geometry" />
        </mxCell>
        <mxCell id="JyznrhnqhkmJ7ZB6tYjq-5" value="&lt;font style=&quot;font-size: 16px;&quot;&gt;BPF 前端&lt;/font&gt;" style="rounded=1;whiteSpace=wrap;html=1;fillColor=#d5e8d4;strokeColor=#82b366;" vertex="1" parent="1">
          <mxGeometry x="220" y="380" width="160" height="60" as="geometry" />
        </mxCell>
        <mxCell id="JyznrhnqhkmJ7ZB6tYjq-6" value="hard" style="text;html=1;strokeColor=none;fillColor=none;align=center;verticalAlign=middle;whiteSpace=wrap;rounded=0;fontSize=16;" vertex="1" parent="1">
          <mxGeometry x="390" y="155" width="60" height="30" as="geometry" />
        </mxCell>
        <mxCell id="JyznrhnqhkmJ7ZB6tYjq-7" value="medium" style="text;html=1;strokeColor=none;fillColor=none;align=center;verticalAlign=middle;whiteSpace=wrap;rounded=0;fontSize=16;" vertex="1" parent="1">
          <mxGeometry x="390" y="275" width="60" height="30" as="geometry" />
        </mxCell>
        <mxCell id="JyznrhnqhkmJ7ZB6tYjq-8" value="easy" style="text;html=1;strokeColor=none;fillColor=none;align=center;verticalAlign=middle;whiteSpace=wrap;rounded=0;fontSize=16;" vertex="1" parent="1">
          <mxGeometry x="390" y="395" width="60" height="30" as="geometry" />
        </mxCell>
        <mxCell id="JyznrhnqhkmJ7ZB6tYjq-9" value="" style="shape=curlyBracket;whiteSpace=wrap;html=1;rounded=1;fontSize=16;" vertex="1" parent="1">
          <mxGeometry x="450" y="262" width="40" height="300" as="geometry" />
        </mxCell>
        <mxCell id="JyznrhnqhkmJ7ZB6tYjq-10" value="&lt;font style=&quot;font-size: 16px;&quot;&gt;bcc&lt;/font&gt;" style="rounded=1;whiteSpace=wrap;html=1;fillColor=#ffe6cc;strokeColor=#d79b00;" vertex="1" parent="1">
          <mxGeometry x="500" y="262" width="160" height="60" as="geometry" />
        </mxCell>
        <mxCell id="JyznrhnqhkmJ7ZB6tYjq-11" value="&lt;font style=&quot;font-size: 16px;&quot;&gt;bpftrace&lt;/font&gt;" style="rounded=1;whiteSpace=wrap;html=1;fillColor=#ffe6cc;strokeColor=#d79b00;" vertex="1" parent="1">
          <mxGeometry x="500" y="382" width="160" height="60" as="geometry" />
        </mxCell>
        <mxCell id="JyznrhnqhkmJ7ZB6tYjq-12" value="&lt;font style=&quot;font-size: 16px;&quot;&gt;ply&lt;/font&gt;" style="rounded=1;whiteSpace=wrap;html=1;fillColor=#ffe6cc;strokeColor=#d79b00;" vertex="1" parent="1">
          <mxGeometry x="500" y="502" width="160" height="60" as="geometry" />
        </mxCell>
        <mxCell id="JyznrhnqhkmJ7ZB6tYjq-13" value="hard" style="text;html=1;strokeColor=none;fillColor=none;align=center;verticalAlign=middle;whiteSpace=wrap;rounded=0;fontSize=16;" vertex="1" parent="1">
          <mxGeometry x="670" y="277" width="60" height="30" as="geometry" />
        </mxCell>
        <mxCell id="JyznrhnqhkmJ7ZB6tYjq-14" value="easy" style="text;html=1;strokeColor=none;fillColor=none;align=center;verticalAlign=middle;whiteSpace=wrap;rounded=0;fontSize=16;" vertex="1" parent="1">
          <mxGeometry x="670" y="397" width="60" height="30" as="geometry" />
        </mxCell>
        <mxCell id="JyznrhnqhkmJ7ZB6tYjq-15" value="not support yet" style="text;html=1;strokeColor=none;fillColor=none;align=center;verticalAlign=middle;whiteSpace=wrap;rounded=0;fontSize=16;" vertex="1" parent="1">
          <mxGeometry x="670" y="517" width="120" height="30" as="geometry" />
        </mxCell>
      </root>
    </mxGraphModel>
  </diagram>
</mxfile>
